# xmcd CD database file
#
# Track frame offsets:
#	150
#	12888
#	28365
#	37151
#	49055
#	56976
#	73492
#	87957
#	106272
#	114422
#	127815
#	141639
#	157807
#	172867
#	187752
#	202286
#	215864
#	230320
#	244249
#	257109
#
# Disc length: 3631 seconds
#
# Revision: 0
# Processed by: cddbd v1.5.2PL0 Copyright (c) Steve Scherf et al.
# Submitted via: CDex 1.51
#
DISCID=2c0e2d14
DTITLE=Kenny Graham - four classic albums plus - CD 3
DYEAR=2013
DGENRE=Jazz
TTITLE0=Beguine
TTITLE1=Tempo Medio Lento
TTITLE2=Saga Boy
TTITLE3=Bongo chant
TTITLE4=Mango Walk
TTITLE5=Dance of the zombies
TTITLE6=Wha' happin' Sah
TTITLE7=Haitian ritual
TTITLE8=Mango walk (alt)
TTITLE9=pina colada
TTITLE10=Chloe
TTITLE11=Over the rainbow
TTITLE12=Skylon
TTITLE13=Dome of discovery
TTITLE14=Not so fast
TTITLE15=Battle royal
TTITLE16=Mike fright
TTITLE17=Pip squeak
TTITLE18=Kenny's jig
TTITLE19=Cuban cannon
EXTD=YEAR: 2013
EXTT0=
EXTT1=
EXTT2=
EXTT3=
EXTT4=
EXTT5=
EXTT6=
EXTT7=
EXTT8=
EXTT9=
EXTT10=
EXTT11=
EXTT12=
EXTT13=
EXTT14=
EXTT15=
EXTT16=
EXTT17=
EXTT18=
EXTT19=
PLAYORDER=
